<?xml version="1.0" ?><!DOCTYPE svg  PUBLIC '-//W3C//DTD SVG 1.1//EN'  'http://www.w3.org/Graphics/SVG/1.1/DTD/svg11.dtd'><svg enable-background="new 0 0 800 800" height="800px" id="Layer_1" version="1.1" viewBox="0 0 800 800" width="800px" xml:space="preserve" xmlns="http://www.w3.org/2000/svg" xmlns:xlink="http://www.w3.org/1999/xlink"><g><path d="M283.984,116.998l32.674,159.441h-42.543c-4.246,0-8.311,1.757-11.23,4.857   c-2.911,3.083-4.426,7.251-4.168,11.488l23.751,401.806c0.276,22.132,18.361,40.063,40.563,40.063h144.414   c22.201,0,40.295-17.931,40.57-40.063l23.752-401.806c0.241-4.237-1.266-8.405-4.186-11.488c-2.91-3.101-6.976-4.857-11.23-4.857   H348.16l-35.352-172.565c-0.904-4.41-3.677-8.182-7.587-10.386L166.965,16.238c-7.432-4.151-16.836-1.499-21.004,5.942   c-4.16,7.441-1.49,16.845,5.951,20.996L283.984,116.998z M378.552,578.537c1.49,7.319,7.932,12.349,15.097,12.349   c1.033,0,2.075-0.103,3.118-0.327c8.354-1.705,13.727-9.852,12.021-18.205l-54.307-265.049h145.507l-2.497,42.138H393.132   c-8.525,0-15.433,6.907-15.433,15.433c0,8.509,6.907,15.433,15.433,15.433h102.533l-18.48,312.854   c-0.018,0.31-0.035,0.603-0.035,0.913c0,5.356-4.357,9.714-9.705,9.714H323.031c-5.348,0-9.706-4.357-9.706-9.714   c0-0.311-0.008-0.604-0.025-0.913l-18.499-312.854h15.01c8.518,0,15.433-6.924,15.433-15.433c0-8.526-6.915-15.433-15.433-15.433   h-16.836l-2.48-42.138h32.484L378.552,578.537z" fill="#4D4D4D"/><path d="M444.372,503.871c22.667,0,41.097-18.446,41.097-41.113c0-22.666-18.43-41.096-41.097-41.096   c-22.666,0-41.096,18.43-41.096,41.096C403.276,485.425,421.706,503.871,444.372,503.871z" fill="#4D4D4D"/><path d="M311.284,588.389c0,13.865,11.282,25.146,25.147,25.146s25.146-11.281,25.146-25.146   s-11.281-25.146-25.146-25.146S311.284,574.523,311.284,588.389z" fill="#4D4D4D"/><path d="M427.235,692.369c26.783,0,48.57-21.789,48.57-48.572c0-26.782-21.787-48.57-48.57-48.57   s-48.572,21.788-48.572,48.57C378.663,670.58,400.452,692.369,427.235,692.369z M427.235,626.092   c9.766,0,17.705,7.939,17.705,17.705c0,9.767-7.939,17.707-17.705,17.707c-9.767,0-17.707-7.94-17.707-17.707   C409.528,634.031,417.469,626.092,427.235,626.092z" fill="#4D4D4D"/><path d="M640.569,754.857h-37.548c-8.526,0-15.433,6.906-15.433,15.432c0,8.526,6.906,15.434,15.433,15.434h37.548   c8.525,0,15.433-6.907,15.433-15.434C656.002,761.764,649.095,754.857,640.569,754.857z" fill="#4D4D4D"/><path d="M538.423,754.857H164.804c-8.517,0-15.433,6.906-15.433,15.432c0,8.526,6.916,15.434,15.433,15.434h373.619   c8.518,0,15.434-6.907,15.434-15.434C553.856,761.764,546.94,754.857,538.423,754.857z" fill="#4D4D4D"/></g></svg>