<?xml version="1.0" ?><!DOCTYPE svg  PUBLIC '-//W3C//DTD SVG 1.1//EN'  'http://www.w3.org/Graphics/SVG/1.1/DTD/svg11.dtd'><svg enable-background="new 0 0 128 128" id="Слой_1" version="1.1" viewBox="0 0 128 128" xml:space="preserve" xmlns="http://www.w3.org/2000/svg" xmlns:xlink="http://www.w3.org/1999/xlink"><g><circle cx="64" cy="64" fill="#CBE8E1" r="62"/><g><g><g><g><path d="M103.5,71.1l-4.8-18.2c-2-7.4-9.6-11.9-17-9.9l-18.2,4.8c-7.2,1.9-13.3,6.5-17,13l-27,46.3       C30.7,118.7,46.5,126,64,126c6.5,0,12.9-1,18.8-2.9l17.9-30.8C104.4,85.9,105.4,78.3,103.5,71.1z M88.5,62.8       c-3.3,1.9-7.6,0.8-9.5-2.6c-1.9-3.3-0.8-7.6,2.6-9.5c3.3-1.9,7.6-0.8,9.5,2.6C93,56.6,91.8,60.9,88.5,62.8z" fill="#E68076"/></g><g><path d="M104.7,70.8l-4.8-18.2c-0.4-1.6-1.7-6.4-25.4-6.4c-6.1,0-11,0.3-11.1,0.3c-0.1,0-0.2,0-0.2,0       c-7.4,2-13.9,6.9-17.8,13.5l-26.8,46c0.6,0.6,1.2,1.3,1.8,1.9l27.1-46.6c3.5-6,9.4-10.5,16.2-12.4c0.8-0.1,5.3-0.3,10.8-0.3       c3.1,0,5.8,0.1,8.1,0.2c-0.6,0.2-1.1,0.4-1.6,0.7c-3.9,2.3-5.3,7.3-3,11.2c1.5,2.6,4.2,4.1,7.1,4.1c1.4,0,2.8-0.4,4.1-1.1       c1.9-1.1,3.3-2.9,3.9-5c0.6-2.1,0.3-4.3-0.8-6.2c-0.8-1.3-1.9-2.4-3.1-3.1c7,1.1,8.2,2.9,8.4,3.6l4.8,18.2       c1.8,6.8,0.8,14.2-2.7,20.3L81,123.6c1.2-0.3,2.4-0.7,3.5-1.1l17.2-29.5C105.6,86.3,106.7,78.2,104.7,70.8z M90,53.9       c0.8,1.3,1,2.9,0.6,4.3s-1.4,2.7-2.7,3.5C87,62.2,86,62.5,85,62.5c-2.1,0-4-1.1-5-2.9c-1.6-2.7-0.6-6.2,2.1-7.8       C83,51.3,84,51,85,51C87.1,51,89,52.1,90,53.9z" fill="#2D2E2D"/></g></g><g><g><g><g opacity="0.15"><path d="M100.7,92.3c3.7-6.4,4.8-14.1,2.8-21.2l-4.8-18.2c-2-7.4-9.6-11.9-17-9.9l-18.2,4.8         c-7.2,1.9-13.3,6.5-17,13l-27,46.3C30.7,118.7,46.5,126,64,126c3.5,0,6.8-0.3,10.2-0.8l18-18.1L100.7,92.3z M88.5,62.8         c-3.3,1.9-7.6,0.8-9.5-2.6c-1.9-3.3-0.8-7.6,2.6-9.5c3.3-1.9,7.6-0.8,9.5,2.6C93,56.6,91.8,60.9,88.5,62.8z" fill="#04080A"/></g><g><path d="M99.3,75.3l-0.1-18.8c0-7.7-6.3-13.9-14-13.9l-18.8,0c-7.4,0-14.5,3-19.8,8.3L8,89.9         c-0.1,0.1-0.2,0.2-0.2,0.3c9.4,20.2,29.5,34.5,53,35.8l30.5-30.8C96.4,89.9,99.3,82.8,99.3,75.3z M86.8,63.5         c-3.7,1-7.6-1.2-8.6-4.9c-1-3.7,1.2-7.6,4.9-8.6s7.6,1.2,8.6,4.9C92.7,58.7,90.6,62.5,86.8,63.5z" fill="#EEEBA8"/></g><g><path d="M100.5,75.3l-0.1-18.8c0-3.9-5.7-7.4-17.3-11c-8.2-2.5-16.4-4-16.5-4.1c-0.1,0-0.2,0-0.2,0         c-7.7,0-15.2,3.2-20.6,8.6L7.2,88.9c0.4,0.8,0.7,1.6,1.1,2.5c0.2-0.2,0.3-0.4,0.5-0.6l38.6-38.9c4.9-5,11.8-7.8,18.8-7.9         c5.8,1.1,12.5,2.7,18.3,4.7c-0.6,0-1.2,0.1-1.7,0.3c-2.1,0.6-3.9,1.9-5,3.9c-1.1,1.9-1.4,4.1-0.8,6.2c1,3.6,4.2,6.1,7.9,6.1         c0.7,0,1.5-0.1,2.2-0.3c4.4-1.2,7-5.7,5.8-10.1c-0.4-1.5-1.2-2.8-2.2-3.8c4.3,1.9,7.2,3.8,7.2,5.6L98,75.3         c0,7-2.8,13.9-7.7,18.9l-31.2,31.5c1.1,0.1,2.2,0.1,3.3,0.2L92.1,96C97.5,90.6,100.6,83,100.5,75.3z M86.5,62.3         c-0.5,0.1-1,0.2-1.5,0.2c-2.6,0-4.8-1.7-5.5-4.2c-0.4-1.5-0.2-3,0.6-4.3c0.8-1.3,2-2.3,3.5-2.7c0.5-0.1,1-0.2,1.5-0.2         c2.6,0,4.8,1.7,5.5,4.2C91.4,58.4,89.6,61.5,86.5,62.3z" fill="#2D2E2D"/></g></g><g><g opacity="0.15"><path d="M91.2,95.2c5.2-5.3,8.1-12.4,8.1-19.8l-0.1-18.8c0-7.7-6.3-13.9-14-13.9l-18.8,0         c-7.4,0-14.5,3-19.8,8.3L8,89.9c-0.1,0.1-0.2,0.2-0.2,0.3c7.8,16.8,23,29.5,41.4,34l31.1-18L91.2,95.2z M78.3,58.6         c-1-3.7,1.2-7.6,4.9-8.6c3.7-1,7.6,1.2,8.6,4.9c1,3.7-1.2,7.6-4.9,8.6C83.1,64.6,79.3,62.4,78.3,58.6z" fill="#04080A"/></g><g><path d="M93.9,78.5l4.8-18.2c2-7.4-2.4-15.1-9.9-17.1l-18.2-4.9c-7.2-1.9-14.8-0.9-21.2,2.8L2.2,68.4         c1.6,23,15.8,42.6,35.8,51.9l42.9-24.8C87.3,91.8,92,85.7,93.9,78.5z M78,56.9c0-3.9,3.1-7,7-7s7,3.1,7,7c0,3.9-3.1,7-7,7         S78,60.7,78,56.9z" fill="#2AA590"/></g><g><path d="M20.8,92.3         l-1.6,0.5c-2.4,0.8-3.5,0.5-4.3-0.9c-0.7-1.3-0.4-3,1.9-4.3c2.1-1.2,3.6-0.6,4.5,0.3c0.4,0.3,0.8,0.3,1.2,0.1         c0.1-0.1,0.2-0.2,0.3-0.2c0.3-0.3,0.5-0.8,0.3-1.2c-0.1-0.1-0.1-0.2-0.2-0.3c-1.2-1.1-3.5-2.3-7-0.3c-3.6,2.1-4,4.9-2.8,7         c1.5,2.5,3.4,2.9,6.7,1.8l1.7-0.6c2.6-0.9,3.8-0.7,4.7,0.9c1,1.7,0.2,3.5-2,4.8c-2.8,1.6-4.3,0.5-5.4-0.5         c-0.4-0.3-0.8-0.3-1.2-0.1c-0.1,0.1-0.2,0.1-0.3,0.2c-0.4,0.3-0.5,0.8-0.3,1.2c0,0.1,0.1,0.1,0.2,0.2c1.4,1.3,3.6,3.1,8,0.5         c3.5-2,4.3-5,2.9-7.5C26.4,91.2,24.1,91.2,20.8,92.3z" fill="#E7E8E3" stroke="#E7E8E3" stroke-linecap="round" stroke-linejoin="round" stroke-width="2.5"/><path d="M46.1,87.7         L33.2,77.4c-0.6-0.5-1.3-0.5-1.9-0.1c-0.6,0.3-0.9,0.9-0.8,1.7l2.4,16.3c0,0.1,0.1,0.2,0.1,0.4c0.2,0.4,0.7,0.5,1.1,0.4         c0.2,0,0.3-0.1,0.4-0.2c0.3-0.2,0.5-0.5,0.4-1L34.1,90l6.7-3.9l3.8,3.1c0.3,0.3,0.8,0.3,1.1,0.1c0.1-0.1,0.2-0.2,0.3-0.3         c0.3-0.3,0.5-0.8,0.2-1.2C46.3,87.8,46.2,87.7,46.1,87.7z M33.8,88.1l-1.1-6.9c-0.1-0.7-0.3-1.4-0.5-2.2         c0.6,0.6,1.1,1.1,1.7,1.5l5.4,4.4L33.8,88.1z" fill="#E7E8E3" stroke="#E7E8E3" stroke-linecap="round" stroke-linejoin="round" stroke-width="2.5"/><path d="M59,79.2         l-6.8,4c-0.4,0.3-0.8,0.2-1.1-0.3l-6.9-12c-0.3-0.6-0.9-0.6-1.4-0.3c-0.5,0.3-0.8,0.8-0.4,1.4l7.1,12.3         c0.8,1.5,1.8,1.7,3.2,0.9L60,81c0.5-0.3,0.5-0.9,0.3-1.3C60,79.2,59.5,79,59,79.2z" fill="#E7E8E3" stroke="#E7E8E3" stroke-linecap="round" stroke-linejoin="round" stroke-width="2.5"/><path d="M72.7,71.4         l-6.9,4c-0.4,0.2-0.8,0.2-1.1-0.2l-2.7-4.8l6.6-3.8c0.5-0.3,0.5-0.8,0.3-1.2c-0.3-0.5-0.8-0.7-1.2-0.4L61,68.8l-2.3-4         c-0.3-0.5-0.2-0.8,0.3-1.1l6.8-3.9c0.5-0.3,0.6-0.8,0.3-1.3s-0.8-0.7-1.3-0.4l-7.3,4.2c-1.4,0.8-1.6,1.7-0.8,3.2L63,76.5         c0.8,1.5,1.8,1.7,3.2,0.9l7.5-4.3c0.5-0.3,0.6-0.8,0.3-1.3C73.6,71.3,73.2,71.1,72.7,71.4z" fill="#E7E8E3" stroke="#E7E8E3" stroke-linecap="round" stroke-linejoin="round" stroke-width="2.5"/></g><g><path d="M95.1,78.8l4.8-18.2c2.1-8.1-2.7-16.4-10.7-18.6L71,37.1c-7.4-2-15.5-0.9-22.2,2.9L2.1,67         c0,0.9,0.1,1.9,0.2,2.8c0.1-0.1,0.2-0.1,0.3-0.2l47.5-27.4c4-2.3,8.7-3.6,13.3-3.6c2.3,0,4.7,0.3,6.9,0.9l18.2,4.9         c6.7,1.8,10.8,8.8,9,15.5l-4.8,18.2c-1.8,6.8-6.3,12.7-12.4,16.2l-43.7,25.2c0.9,0.5,1.8,0.9,2.8,1.3l42.1-24.3         C88.2,92.7,93.1,86.2,95.1,78.8z" fill="#2D2E2D"/><path d="M85,65.1c4.5,0,8.2-3.7,8.2-8.2s-3.7-8.2-8.2-8.2s-8.2,3.7-8.2,8.2S80.4,65.1,85,65.1z M85,51.1         c3.2,0,5.7,2.6,5.7,5.7s-2.6,5.7-5.7,5.7s-5.7-2.6-5.7-5.7S81.8,51.1,85,51.1z" fill="#2D2E2D"/></g></g></g></g></g><g><g><path d="M111.7,58.7l-25-5.7c-2.3-0.5-4.5,1-5,3.2c-0.5,2.3,1,4.5,3.2,5l25,5.7c2.3,0.5,4.5-1,5-3.2      C115.4,61.4,113.9,59.2,111.7,58.7z" fill="#C35D55"/></g><g><path d="M115.4,59.8c-0.8-1.2-2-2.1-3.4-2.4l-25-5.7c-0.4-0.1-0.8-0.1-1.1-0.1c-2.5,0-4.8,1.8-5.3,4.3      c-0.3,1.4,0,2.9,0.8,4.1c0.8,1.2,2,2.1,3.4,2.4l25,5.7c0.4,0.1,0.8,0.1,1.1,0.1c2.5,0,4.8-1.8,5.3-4.3      C116.4,62.5,116.2,61,115.4,59.8z M113.7,63.4c-0.3,1.3-1.5,2.3-2.9,2.3c-0.2,0-0.4,0-0.6-0.1l-25-5.7c-0.8-0.2-1.4-0.6-1.9-1.3      s-0.6-1.4-0.4-2.2c0.3-1.3,1.5-2.3,2.9-2.3c0.2,0,0.4,0,0.6,0.1l25,5.7c0.8,0.2,1.4,0.6,1.9,1.3S113.8,62.6,113.7,63.4z" fill="#2D2E2D"/></g></g></g></g><g><g><g><line fill="#9E715F" x1="126.9" x2="144.5" y1="55.2" y2="72.8"/></g></g></g></svg>